<svg width="284" height="18" viewBox="0 0 284 18" fill="none" xmlns="http://www.w3.org/2000/svg">
<path d="M17.299 9.05011C17.299 8.47387 17.2473 7.91979 17.1512 7.38788H9.49756V10.535H13.8711C13.679 11.5472 13.1028 12.4041 12.2384 12.9804V15.0268H14.8758C16.4124 13.6083 17.299 11.525 17.299 9.05011Z" fill="#4285F4"/>
<path d="M9.4991 16.9919C11.6932 16.9919 13.5328 16.2679 14.8773 15.0267L12.2399 12.9803C11.5159 13.4679 10.5925 13.7634 9.4991 13.7634C7.38622 13.7634 5.59101 12.3376 4.94828 10.4168H2.24438V12.5149C3.58156 15.1671 6.32239 16.9919 9.4991 16.9919Z" fill="#34A853"/>
<path d="M4.9482 10.4092C4.78567 9.92166 4.68963 9.40452 4.68963 8.86522C4.68963 8.32592 4.78567 7.80878 4.9482 7.32119V5.22308H2.24431C1.69023 6.31646 1.37256 7.55021 1.37256 8.86522C1.37256 10.1802 1.69023 11.414 2.24431 12.5074L4.3498 10.8673L4.9482 10.4092Z" fill="#FBBC05"/>
<path d="M9.4991 3.97482C10.6959 3.97482 11.7597 4.38854 12.6093 5.18641L14.9364 2.85928C13.5254 1.54427 11.6932 0.739014 9.4991 0.739014C6.32239 0.739014 3.58156 2.56377 2.24438 5.22335L4.94828 7.32145C5.59101 5.40065 7.38622 3.97482 9.4991 3.97482Z" fill="#EA4335"/>
<path d="M30.6775 14.5332C29.9309 14.5332 29.2402 14.3979 28.6055 14.1272C27.9709 13.8566 27.4155 13.4786 26.9395 12.9932C26.4635 12.5079 26.0902 11.9386 25.8195 11.2852C25.5582 10.6319 25.4275 9.9179 25.4275 9.14323C25.4275 8.36857 25.5535 7.65457 25.8055 7.00123C26.0669 6.33857 26.4309 5.76923 26.8975 5.29323C27.3735 4.8079 27.9289 4.43457 28.5635 4.17323C29.1982 3.90257 29.8889 3.76723 30.6355 3.76723C31.3822 3.76723 32.0495 3.89323 32.6375 4.14523C33.2349 4.39723 33.7389 4.73323 34.1495 5.15323C34.5602 5.5639 34.8542 6.01657 35.0315 6.51123L33.3375 7.32323C33.1415 6.7819 32.8102 6.34323 32.3435 6.00723C31.8769 5.67123 31.3075 5.50323 30.6355 5.50323C29.9822 5.50323 29.4035 5.65723 28.8995 5.96523C28.4049 6.27323 28.0175 6.6979 27.7375 7.23923C27.4669 7.78057 27.3315 8.41523 27.3315 9.14323C27.3315 9.87123 27.4715 10.5106 27.7515 11.0612C28.0409 11.6026 28.4375 12.0272 28.9415 12.3352C29.4455 12.6432 30.0242 12.7972 30.6775 12.7972C31.2095 12.7972 31.6995 12.6946 32.1475 12.4892C32.5955 12.2746 32.9549 11.9759 33.2255 11.5932C33.4962 11.2012 33.6315 10.7392 33.6315 10.2072V9.40923L34.4995 10.1652H30.6355V8.55523H35.5355V9.60523C35.5355 10.4079 35.4002 11.1172 35.1295 11.7332C34.8589 12.3492 34.4902 12.8672 34.0235 13.2872C33.5662 13.6979 33.0482 14.0106 32.4695 14.2252C31.8909 14.4306 31.2935 14.5332 30.6775 14.5332ZM40.6122 14.5332C39.8655 14.5332 39.1842 14.3606 38.5682 14.0152C37.9615 13.6699 37.4762 13.1986 37.1122 12.6012C36.7575 12.0039 36.5802 11.3226 36.5802 10.5572C36.5802 9.7919 36.7575 9.11057 37.1122 8.51323C37.4762 7.9159 37.9615 7.44457 38.5682 7.09923C39.1748 6.7539 39.8562 6.58123 40.6122 6.58123C41.3588 6.58123 42.0355 6.7539 42.6422 7.09923C43.2488 7.44457 43.7295 7.9159 44.0842 8.51323C44.4482 9.10123 44.6302 9.78257 44.6302 10.5572C44.6302 11.3226 44.4482 12.0039 44.0842 12.6012C43.7202 13.1986 43.2348 13.6699 42.6282 14.0152C42.0215 14.3606 41.3495 14.5332 40.6122 14.5332ZM40.6122 12.8532C41.0228 12.8532 41.3822 12.7552 41.6902 12.5592C42.0075 12.3632 42.2548 12.0926 42.4322 11.7472C42.6188 11.3926 42.7122 10.9959 42.7122 10.5572C42.7122 10.1092 42.6188 9.71723 42.4322 9.38123C42.2548 9.0359 42.0075 8.76523 41.6902 8.56923C41.3822 8.3639 41.0228 8.26123 40.6122 8.26123C40.1922 8.26123 39.8235 8.3639 39.5062 8.56923C39.1888 8.76523 38.9368 9.0359 38.7502 9.38123C38.5728 9.71723 38.4842 10.1092 38.4842 10.5572C38.4842 10.9959 38.5728 11.3926 38.7502 11.7472C38.9368 12.0926 39.1888 12.3632 39.5062 12.5592C39.8235 12.7552 40.1922 12.8532 40.6122 12.8532ZM49.745 14.5332C48.9983 14.5332 48.317 14.3606 47.701 14.0152C47.0943 13.6699 46.609 13.1986 46.245 12.6012C45.8903 12.0039 45.713 11.3226 45.713 10.5572C45.713 9.7919 45.8903 9.11057 46.245 8.51323C46.609 7.9159 47.0943 7.44457 47.701 7.09923C48.3077 6.7539 48.989 6.58123 49.745 6.58123C50.4917 6.58123 51.1683 6.7539 51.775 7.09923C52.3817 7.44457 52.8623 7.9159 53.217 8.51323C53.581 9.10123 53.763 9.78257 53.763 10.5572C53.763 11.3226 53.581 12.0039 53.217 12.6012C52.853 13.1986 52.3677 13.6699 51.761 14.0152C51.1543 14.3606 50.4823 14.5332 49.745 14.5332ZM49.745 12.8532C50.1557 12.8532 50.515 12.7552 50.823 12.5592C51.1403 12.3632 51.3877 12.0926 51.565 11.7472C51.7517 11.3926 51.845 10.9959 51.845 10.5572C51.845 10.1092 51.7517 9.71723 51.565 9.38123C51.3877 9.0359 51.1403 8.76523 50.823 8.56923C50.515 8.3639 50.1557 8.26123 49.745 8.26123C49.325 8.26123 48.9563 8.3639 48.639 8.56923C48.3217 8.76523 48.0697 9.0359 47.883 9.38123C47.7057 9.71723 47.617 10.1092 47.617 10.5572C47.617 10.9959 47.7057 11.3926 47.883 11.7472C48.0697 12.0926 48.3217 12.3632 48.639 12.5592C48.9563 12.7552 49.325 12.8532 49.745 12.8532ZM58.8498 17.4452C58.2805 17.4452 57.7531 17.3519 57.2678 17.1652C56.7825 16.9786 56.3625 16.7172 56.0078 16.3812C55.6625 16.0546 55.4105 15.6672 55.2518 15.2192L56.9598 14.5752C57.0718 14.9299 57.2911 15.2146 57.6178 15.4292C57.9538 15.6532 58.3645 15.7652 58.8498 15.7652C59.2231 15.7652 59.5498 15.6952 59.8298 15.5552C60.1191 15.4152 60.3431 15.2099 60.5018 14.9392C60.6605 14.6779 60.7398 14.3606 60.7398 13.9872V12.2512L61.0898 12.6712C60.8285 13.1286 60.4785 13.4739 60.0398 13.7072C59.6011 13.9406 59.1018 14.0572 58.5418 14.0572C57.8325 14.0572 57.1978 13.8939 56.6378 13.5672C56.0778 13.2406 55.6391 12.7926 55.3218 12.2232C55.0045 11.6539 54.8458 11.0146 54.8458 10.3052C54.8458 9.58657 55.0045 8.94723 55.3218 8.38723C55.6391 7.82723 56.0731 7.38857 56.6238 7.07123C57.1745 6.74457 57.7998 6.58123 58.4998 6.58123C59.0691 6.58123 59.5685 6.70257 59.9978 6.94523C60.4365 7.17857 60.8005 7.51923 61.0898 7.96723L60.8378 8.42923V6.74923H62.5738V13.9872C62.5738 14.6499 62.4105 15.2426 62.0838 15.7652C61.7665 16.2879 61.3278 16.6986 60.7678 16.9972C60.2171 17.2959 59.5778 17.4452 58.8498 17.4452ZM58.7658 12.3632C59.1578 12.3632 59.4985 12.2792 59.7878 12.1112C60.0865 11.9339 60.3198 11.6912 60.4878 11.3832C60.6558 11.0752 60.7398 10.7206 60.7398 10.3192C60.7398 9.92723 60.6511 9.57723 60.4738 9.26923C60.3058 8.9519 60.0725 8.70457 59.7738 8.52723C59.4845 8.3499 59.1485 8.26123 58.7658 8.26123C58.3831 8.26123 58.0378 8.3499 57.7298 8.52723C57.4218 8.70457 57.1791 8.9519 57.0018 9.26923C56.8338 9.57723 56.7498 9.92723 56.7498 10.3192C56.7498 10.7112 56.8338 11.0612 57.0018 11.3692C57.1791 11.6772 57.4171 11.9199 57.7158 12.0972C58.0238 12.2746 58.3738 12.3632 58.7658 12.3632ZM64.2866 14.3652V3.76723H66.1206V14.3652H64.2866ZM71.426 14.5332C70.642 14.5332 69.956 14.3559 69.368 14.0012C68.78 13.6466 68.3226 13.1659 67.996 12.5592C67.6693 11.9526 67.506 11.2806 67.506 10.5432C67.506 9.7779 67.6693 9.10123 67.996 8.51323C68.332 7.9159 68.7846 7.44457 69.354 7.09923C69.9326 6.7539 70.5766 6.58123 71.286 6.58123C71.8833 6.58123 72.406 6.67923 72.854 6.87523C73.3113 7.07123 73.6986 7.3419 74.016 7.68723C74.3333 8.03257 74.576 8.42923 74.744 8.87723C74.912 9.3159 74.996 9.7919 74.996 10.3052C74.996 10.4359 74.9866 10.5712 74.968 10.7112C74.9586 10.8512 74.9353 10.9726 74.898 11.0752H69.018V9.67523H73.862L72.994 10.3332C73.078 9.9039 73.0546 9.52123 72.924 9.18523C72.8026 8.84923 72.5973 8.58323 72.308 8.38723C72.028 8.19123 71.6873 8.09323 71.286 8.09323C70.9033 8.09323 70.5626 8.19123 70.264 8.38723C69.9653 8.5739 69.7366 8.8539 69.578 9.22723C69.4286 9.59123 69.3726 10.0346 69.41 10.5572C69.3726 11.0239 69.4333 11.4392 69.592 11.8032C69.76 12.1579 70.0026 12.4332 70.32 12.6292C70.6466 12.8252 71.02 12.9232 71.44 12.9232C71.86 12.9232 72.2146 12.8346 72.504 12.6572C72.8026 12.4799 73.036 12.2419 73.204 11.9432L74.688 12.6712C74.5386 13.0352 74.3053 13.3572 73.988 13.6372C73.6706 13.9172 73.2926 14.1366 72.854 14.2952C72.4246 14.4539 71.9486 14.5332 71.426 14.5332ZM79.0285 14.3652V3.93523H82.9065C83.6158 3.93523 84.2412 4.0659 84.7825 4.32723C85.3332 4.57923 85.7625 4.95257 86.0705 5.44723C86.3785 5.93257 86.5325 6.52523 86.5325 7.22523C86.5325 7.9439 86.3598 8.55523 86.0145 9.05923C85.6785 9.56323 85.2212 9.93657 84.6425 10.1792L87.0365 14.3652H84.8805L82.3185 9.78723L83.5505 10.5152H80.9325V14.3652H79.0285ZM80.9325 8.83523H82.9345C83.2798 8.83523 83.5785 8.7699 83.8305 8.63923C84.0825 8.49923 84.2785 8.3079 84.4185 8.06523C84.5585 7.82257 84.6285 7.54257 84.6285 7.22523C84.6285 6.89857 84.5585 6.61857 84.4185 6.38523C84.2785 6.14257 84.0825 5.9559 83.8305 5.82523C83.5785 5.68523 83.2798 5.61523 82.9345 5.61523H80.9325V8.83523ZM90.4404 14.5332C89.9084 14.5332 89.4464 14.4446 89.0544 14.2672C88.6624 14.0899 88.359 13.8379 88.1444 13.5112C87.9297 13.1752 87.8224 12.7879 87.8224 12.3492C87.8224 11.9292 87.9157 11.5559 88.1024 11.2292C88.289 10.8932 88.5784 10.6132 88.9704 10.3892C89.3624 10.1652 89.857 10.0066 90.4544 9.91323L92.9464 9.50723V10.9072L90.8044 11.2712C90.4404 11.3366 90.1697 11.4532 89.9924 11.6212C89.815 11.7892 89.7264 12.0086 89.7264 12.2792C89.7264 12.5406 89.8244 12.7506 90.0204 12.9092C90.2257 13.0586 90.4777 13.1332 90.7764 13.1332C91.159 13.1332 91.495 13.0539 91.7844 12.8952C92.083 12.7272 92.3117 12.4986 92.4704 12.2092C92.6384 11.9199 92.7224 11.6026 92.7224 11.2572V9.29723C92.7224 8.97057 92.5917 8.6999 92.3304 8.48523C92.0784 8.26123 91.7424 8.14923 91.3224 8.14923C90.9304 8.14923 90.5804 8.25657 90.2724 8.47123C89.9737 8.67657 89.7544 8.9519 89.6144 9.29723L88.1164 8.56923C88.2657 8.1679 88.499 7.82257 88.8164 7.53323C89.143 7.23457 89.5257 7.00123 89.9644 6.83323C90.403 6.66523 90.879 6.58123 91.3924 6.58123C92.0177 6.58123 92.5684 6.6979 93.0444 6.93123C93.5204 7.15523 93.889 7.47257 94.1504 7.88323C94.421 8.28457 94.5564 8.7559 94.5564 9.29723V14.3652H92.8204V13.0632L93.2124 13.0352C93.0164 13.3619 92.783 13.6372 92.5124 13.8612C92.2417 14.0759 91.9337 14.2439 91.5884 14.3652C91.243 14.4772 90.8604 14.5332 90.4404 14.5332ZM99.5867 14.4492C98.7281 14.4492 98.0607 14.2159 97.5847 13.7492C97.1181 13.2732 96.8847 12.6059 96.8847 11.7472V8.38723H95.5687V6.74923H95.7087C96.0821 6.74923 96.3714 6.65123 96.5767 6.45523C96.7821 6.25923 96.8847 5.97457 96.8847 5.60123V5.01323H98.7187V6.74923H100.469V8.38723H98.7187V11.6492C98.7187 11.9012 98.7607 12.1159 98.8447 12.2932C98.9381 12.4706 99.0781 12.6059 99.2647 12.6992C99.4607 12.7926 99.7081 12.8392 100.007 12.8392C100.072 12.8392 100.147 12.8346 100.231 12.8252C100.324 12.8159 100.413 12.8066 100.497 12.7972V14.3652C100.366 14.3839 100.217 14.4026 100.049 14.4212C99.8807 14.4399 99.7267 14.4492 99.5867 14.4492ZM101.898 14.3652V6.74923H103.732V14.3652H101.898ZM101.898 5.89523V3.93523H103.732V5.89523H101.898ZM105.425 14.3652V6.74923H107.147V8.24723L107.007 7.98123C107.185 7.5239 107.474 7.17857 107.875 6.94523C108.286 6.70257 108.762 6.58123 109.303 6.58123C109.863 6.58123 110.358 6.70257 110.787 6.94523C111.226 7.1879 111.567 7.52857 111.809 7.96723C112.052 8.39657 112.173 8.8959 112.173 9.46523V14.3652H110.339V9.89923C110.339 9.56323 110.274 9.2739 110.143 9.03123C110.013 8.78857 109.831 8.6019 109.597 8.47123C109.373 8.33123 109.107 8.26123 108.799 8.26123C108.501 8.26123 108.235 8.33123 108.001 8.47123C107.768 8.6019 107.586 8.78857 107.455 9.03123C107.325 9.2739 107.259 9.56323 107.259 9.89923V14.3652H105.425ZM117.42 17.4452C116.851 17.4452 116.323 17.3519 115.838 17.1652C115.353 16.9786 114.933 16.7172 114.578 16.3812C114.233 16.0546 113.981 15.6672 113.822 15.2192L115.53 14.5752C115.642 14.9299 115.861 15.2146 116.188 15.4292C116.524 15.6532 116.935 15.7652 117.42 15.7652C117.793 15.7652 118.12 15.6952 118.4 15.5552C118.689 15.4152 118.913 15.2099 119.072 14.9392C119.231 14.6779 119.31 14.3606 119.31 13.9872V12.2512L119.66 12.6712C119.399 13.1286 119.049 13.4739 118.61 13.7072C118.171 13.9406 117.672 14.0572 117.112 14.0572C116.403 14.0572 115.768 13.8939 115.208 13.5672C114.648 13.2406 114.209 12.7926 113.892 12.2232C113.575 11.6539 113.416 11.0146 113.416 10.3052C113.416 9.58657 113.575 8.94723 113.892 8.38723C114.209 7.82723 114.643 7.38857 115.194 7.07123C115.745 6.74457 116.37 6.58123 117.07 6.58123C117.639 6.58123 118.139 6.70257 118.568 6.94523C119.007 7.17857 119.371 7.51923 119.66 7.96723L119.408 8.42923V6.74923H121.144V13.9872C121.144 14.6499 120.981 15.2426 120.654 15.7652C120.337 16.2879 119.898 16.6986 119.338 16.9972C118.787 17.2959 118.148 17.4452 117.42 17.4452ZM117.336 12.3632C117.728 12.3632 118.069 12.2792 118.358 12.1112C118.657 11.9339 118.89 11.6912 119.058 11.3832C119.226 11.0752 119.31 10.7206 119.31 10.3192C119.31 9.92723 119.221 9.57723 119.044 9.26923C118.876 8.9519 118.643 8.70457 118.344 8.52723C118.055 8.3499 117.719 8.26123 117.336 8.26123C116.953 8.26123 116.608 8.3499 116.3 8.52723C115.992 8.70457 115.749 8.9519 115.572 9.26923C115.404 9.57723 115.32 9.92723 115.32 10.3192C115.32 10.7112 115.404 11.0612 115.572 11.3692C115.749 11.6772 115.987 11.9199 116.286 12.0972C116.594 12.2746 116.944 12.3632 117.336 12.3632Z" fill="#0F1A2A"/>
<path d="M132.704 4.86523H133.704V9.72523H134.834V10.5452H133.704V11.8652H132.774V10.5452H129.704V9.65523L132.704 4.86523ZM130.774 9.72523H132.774V6.41523L130.774 9.72523ZM137.34 11.8652H136.18V10.7052H137.34V11.8652ZM143.548 6.51523C143.548 7.18857 143.164 7.72857 142.398 8.13523C143.338 8.54857 143.808 9.1619 143.808 9.97523C143.808 10.5752 143.571 11.0652 143.098 11.4452C142.631 11.8252 142.018 12.0152 141.258 12.0152C140.498 12.0152 139.881 11.8319 139.408 11.4652C138.941 11.0919 138.708 10.6186 138.708 10.0452C138.708 9.55857 138.841 9.16523 139.108 8.86523C139.374 8.56523 139.698 8.3419 140.078 8.19523C139.338 7.84857 138.968 7.3119 138.968 6.58523C138.968 5.97857 139.188 5.51523 139.628 5.19523C140.068 4.87523 140.611 4.71523 141.258 4.71523C141.911 4.71523 142.454 4.86523 142.888 5.16523C143.328 5.46523 143.548 5.91523 143.548 6.51523ZM142.788 9.97523C142.788 9.71523 142.738 9.49523 142.638 9.31523C142.544 9.12857 142.394 8.9819 142.188 8.87523C141.981 8.76857 141.808 8.69523 141.668 8.65523C141.528 8.60857 141.321 8.55523 141.048 8.49523C140.688 8.6019 140.378 8.77523 140.118 9.01523C139.858 9.25523 139.728 9.57523 139.728 9.97523C139.728 10.3352 139.858 10.6352 140.118 10.8752C140.384 11.1086 140.764 11.2252 141.258 11.2252C141.751 11.2252 142.128 11.1119 142.388 10.8852C142.654 10.6586 142.788 10.3552 142.788 9.97523ZM139.908 6.53523C139.908 6.7819 139.958 6.99523 140.058 7.17523C140.158 7.35523 140.294 7.4919 140.468 7.58523C140.641 7.67857 140.801 7.74523 140.948 7.78523C141.101 7.82523 141.271 7.85857 141.458 7.88523C142.211 7.5919 142.588 7.1419 142.588 6.53523C142.588 6.21523 142.458 5.95857 142.198 5.76523C141.944 5.56523 141.631 5.46523 141.258 5.46523C140.871 5.46523 140.548 5.55857 140.288 5.74523C140.034 5.92523 139.908 6.18857 139.908 6.53523ZM148.622 4.01523H149.482V13.2652H148.622V4.01523ZM156.404 10.7452V9.07523H154.754V8.22523H156.404V6.54523H157.314V8.22523H158.954V9.07523H157.314V10.7452H156.404ZM163.7 11.8652H162.75V5.86523L161.18 6.67523V5.68523L162.76 4.86523H163.7V11.8652ZM172.164 7.28523C172.837 7.28523 173.367 7.5019 173.754 7.93523C174.147 8.36857 174.344 8.93523 174.344 9.63523C174.344 10.3886 174.11 10.9752 173.644 11.3952C173.177 11.8086 172.63 12.0152 172.004 12.0152C171.197 12.0152 170.584 11.7286 170.164 11.1552C169.75 10.5752 169.544 9.73857 169.544 8.64523C169.544 7.8919 169.614 7.24857 169.754 6.71523C169.894 6.1819 170.087 5.77523 170.334 5.49523C170.587 5.21523 170.857 5.01523 171.144 4.89523C171.43 4.77523 171.747 4.71523 172.094 4.71523C172.627 4.71523 173.084 4.84857 173.464 5.11523C173.85 5.3819 174.097 5.7419 174.204 6.19523H173.144C173.084 5.9819 172.96 5.8119 172.774 5.68523C172.594 5.55857 172.364 5.49523 172.084 5.49523C171.117 5.49523 170.587 6.39523 170.494 8.19523C170.687 7.8819 170.934 7.6519 171.234 7.50523C171.54 7.35857 171.85 7.28523 172.164 7.28523ZM170.594 9.60523C170.594 10.1119 170.724 10.5086 170.984 10.7952C171.25 11.0752 171.59 11.2152 172.004 11.2152C172.397 11.2152 172.724 11.0786 172.984 10.8052C173.244 10.5319 173.374 10.1586 173.374 9.68523C173.374 9.1919 173.247 8.8019 172.994 8.51523C172.747 8.22857 172.414 8.08523 171.994 8.08523C171.547 8.08523 171.2 8.2319 170.954 8.52523C170.714 8.8119 170.594 9.1719 170.594 9.60523ZM176.32 8.34523C176.32 10.2586 176.827 11.2152 177.84 11.2152C178.853 11.2152 179.36 10.2586 179.36 8.34523C179.36 7.37857 179.233 6.66523 178.98 6.20523C178.733 5.74523 178.353 5.51523 177.84 5.51523C177.327 5.51523 176.943 5.74523 176.69 6.20523C176.443 6.66523 176.32 7.37857 176.32 8.34523ZM179.65 11.0852C179.19 11.7052 178.587 12.0152 177.84 12.0152C177.093 12.0152 176.49 11.7052 176.03 11.0852C175.57 10.4652 175.34 9.5519 175.34 8.34523C175.34 7.11857 175.567 6.20857 176.02 5.61523C176.48 5.01523 177.087 4.71523 177.84 4.71523C178.593 4.71523 179.197 5.01523 179.65 5.61523C180.11 6.20857 180.34 7.11857 180.34 8.34523C180.34 9.5519 180.11 10.4652 179.65 11.0852ZM182.316 8.34523C182.316 10.2586 182.823 11.2152 183.836 11.2152C184.849 11.2152 185.356 10.2586 185.356 8.34523C185.356 7.37857 185.229 6.66523 184.976 6.20523C184.729 5.74523 184.349 5.51523 183.836 5.51523C183.323 5.51523 182.939 5.74523 182.686 6.20523C182.439 6.66523 182.316 7.37857 182.316 8.34523ZM185.646 11.0852C185.186 11.7052 184.583 12.0152 183.836 12.0152C183.089 12.0152 182.486 11.7052 182.026 11.0852C181.566 10.4652 181.336 9.5519 181.336 8.34523C181.336 7.11857 181.563 6.20857 182.016 5.61523C182.476 5.01523 183.083 4.71523 183.836 4.71523C184.589 4.71523 185.193 5.01523 185.646 5.61523C186.106 6.20857 186.336 7.11857 186.336 8.34523C186.336 9.5519 186.106 10.4652 185.646 11.0852ZM190.48 6.66523H191.44V10.0752C191.44 10.8219 191.8 11.1952 192.52 11.1952C192.933 11.1952 193.25 11.0652 193.47 10.8052C193.69 10.5386 193.8 10.2152 193.8 9.83523V6.66523H194.76V11.8652H193.97L193.86 11.2652C193.493 11.7652 192.973 12.0152 192.3 12.0152C191.747 12.0152 191.303 11.8519 190.97 11.5252C190.643 11.1919 190.48 10.7019 190.48 10.0552V6.66523ZM198.485 11.0952V11.9152C198.238 11.9819 198.002 12.0152 197.775 12.0152C197.328 12.0152 196.985 11.8852 196.745 11.6252C196.505 11.3652 196.385 11.0152 196.385 10.5752V7.48523H195.615V6.66523H196.385L196.445 5.41523H197.345V6.66523H198.465V7.48523H197.345V10.5952C197.345 10.9819 197.528 11.1752 197.895 11.1752C198.068 11.1752 198.265 11.1486 198.485 11.0952ZM200.408 5.79523H199.328V4.66523H200.408V5.79523ZM200.348 11.8652H199.388V6.66523H200.348V11.8652ZM202.711 4.66523V11.8652H201.751V4.66523H202.711ZM205.134 5.79523H204.054V4.66523H205.134V5.79523ZM205.074 11.8652H204.114V6.66523H205.074V11.8652ZM209.517 10.4552C209.517 10.3352 209.491 10.2319 209.437 10.1452C209.391 10.0519 209.331 9.97523 209.257 9.91523C209.191 9.85523 209.081 9.79857 208.927 9.74523C208.781 9.6919 208.647 9.6519 208.527 9.62523C208.414 9.5919 208.241 9.54857 208.007 9.49523C207.401 9.3619 206.964 9.17523 206.697 8.93523C206.431 8.69523 206.297 8.3819 206.297 7.99523C206.297 7.5419 206.471 7.1819 206.817 6.91523C207.171 6.64857 207.671 6.51523 208.317 6.51523C208.897 6.51523 209.374 6.6519 209.747 6.92523C210.127 7.1919 210.361 7.5619 210.447 8.03523H209.467C209.354 7.52857 208.967 7.27523 208.307 7.27523C207.961 7.27523 207.701 7.33523 207.527 7.45523C207.354 7.56857 207.267 7.71857 207.267 7.90523C207.267 8.1119 207.347 8.2719 207.507 8.38523C207.667 8.4919 207.991 8.59857 208.477 8.70523C209.164 8.85857 209.671 9.05523 209.997 9.29523C210.324 9.52857 210.487 9.8919 210.487 10.3852C210.487 10.8719 210.294 11.2652 209.907 11.5652C209.521 11.8652 208.991 12.0152 208.317 12.0152C207.671 12.0152 207.147 11.8686 206.747 11.5752C206.347 11.2752 206.124 10.8752 206.077 10.3752H207.057C207.164 10.9619 207.587 11.2552 208.327 11.2552C208.707 11.2552 209.001 11.1819 209.207 11.0352C209.414 10.8819 209.517 10.6886 209.517 10.4552ZM212.405 8.11523H211.385C211.438 7.62857 211.661 7.2419 212.055 6.95523C212.455 6.6619 212.975 6.51523 213.615 6.51523C214.281 6.51523 214.801 6.67857 215.175 7.00523C215.548 7.3319 215.735 7.76857 215.735 8.31523V11.8652H214.945L214.825 11.1552C214.418 11.7286 213.838 12.0152 213.085 12.0152C212.525 12.0152 212.085 11.8752 211.765 11.5952C211.445 11.3152 211.285 10.9586 211.285 10.5252C211.285 10.0452 211.438 9.66857 211.745 9.39523C212.058 9.11523 212.561 8.91523 213.255 8.79523L214.775 8.53523V8.27523C214.775 7.95523 214.671 7.70857 214.465 7.53523C214.258 7.3619 213.961 7.27523 213.575 7.27523C212.868 7.27523 212.478 7.55523 212.405 8.11523ZM213.315 11.2052C213.688 11.2052 214.025 11.0852 214.325 10.8452C214.625 10.5986 214.775 10.3019 214.775 9.95523V9.28523L213.485 9.51523C213.038 9.58857 212.728 9.69857 212.555 9.84523C212.388 9.98523 212.305 10.1786 212.305 10.4252C212.305 10.6786 212.391 10.8719 212.565 11.0052C212.738 11.1386 212.988 11.2052 213.315 11.2052ZM219.403 11.0952V11.9152C219.156 11.9819 218.919 12.0152 218.693 12.0152C218.246 12.0152 217.903 11.8852 217.663 11.6252C217.423 11.3652 217.303 11.0152 217.303 10.5752V7.48523H216.533V6.66523H217.303L217.363 5.41523H218.263V6.66523H219.383V7.48523H218.263V10.5952C218.263 10.9819 218.446 11.1752 218.813 11.1752C218.986 11.1752 219.183 11.1486 219.403 11.0952ZM223.797 10.3652H224.837C224.703 10.8586 224.433 11.2586 224.027 11.5652C223.62 11.8652 223.113 12.0152 222.507 12.0152C221.74 12.0152 221.123 11.7786 220.657 11.3052C220.19 10.8319 219.957 10.1519 219.957 9.26523C219.957 8.38523 220.187 7.70857 220.647 7.23523C221.107 6.75523 221.71 6.51523 222.457 6.51523C223.217 6.51523 223.813 6.75857 224.247 7.24523C224.68 7.72523 224.897 8.46857 224.897 9.47523H220.937C220.977 10.0552 221.14 10.4886 221.427 10.7752C221.713 11.0619 222.083 11.2052 222.537 11.2052C222.843 11.2052 223.11 11.1286 223.337 10.9752C223.563 10.8152 223.717 10.6119 223.797 10.3652ZM222.477 7.28523C222.083 7.28523 221.753 7.40857 221.487 7.65523C221.22 7.89523 221.05 8.24857 220.977 8.71523H223.917C223.883 8.2419 223.737 7.88523 223.477 7.64523C223.223 7.40523 222.89 7.28523 222.477 7.28523ZM225.998 6.66523H226.958V10.0752C226.958 10.8219 227.318 11.1952 228.038 11.1952C228.451 11.1952 228.768 11.0652 228.988 10.8052C229.208 10.5386 229.318 10.2152 229.318 9.83523V6.66523H230.278V11.8652H229.488L229.378 11.2652C229.011 11.7652 228.491 12.0152 227.818 12.0152C227.264 12.0152 226.821 11.8519 226.488 11.5252C226.161 11.1919 225.998 10.7019 225.998 10.0552V6.66523ZM232.642 11.8652H231.682V6.66523H232.472L232.602 7.43523C232.896 6.8219 233.336 6.51523 233.922 6.51523C234.116 6.51523 234.306 6.53857 234.492 6.58523V7.54523C234.266 7.48523 234.062 7.45523 233.882 7.45523C233.522 7.45523 233.226 7.6019 232.992 7.89523C232.759 8.18857 232.642 8.6419 232.642 9.25523V11.8652ZM238.287 10.4552C238.287 10.3352 238.26 10.2319 238.207 10.1452C238.16 10.0519 238.1 9.97523 238.027 9.91523C237.96 9.85523 237.85 9.79857 237.697 9.74523C237.55 9.6919 237.417 9.6519 237.297 9.62523C237.184 9.5919 237.01 9.54857 236.777 9.49523C236.17 9.3619 235.734 9.17523 235.467 8.93523C235.2 8.69523 235.067 8.3819 235.067 7.99523C235.067 7.5419 235.24 7.1819 235.587 6.91523C235.94 6.64857 236.44 6.51523 237.087 6.51523C237.667 6.51523 238.144 6.6519 238.517 6.92523C238.897 7.1919 239.13 7.5619 239.217 8.03523H238.237C238.124 7.52857 237.737 7.27523 237.077 7.27523C236.73 7.27523 236.47 7.33523 236.297 7.45523C236.124 7.56857 236.037 7.71857 236.037 7.90523C236.037 8.1119 236.117 8.2719 236.277 8.38523C236.437 8.4919 236.76 8.59857 237.247 8.70523C237.934 8.85857 238.44 9.05523 238.767 9.29523C239.094 9.52857 239.257 9.8919 239.257 10.3852C239.257 10.8719 239.064 11.2652 238.677 11.5652C238.29 11.8652 237.76 12.0152 237.087 12.0152C236.44 12.0152 235.917 11.8686 235.517 11.5752C235.117 11.2752 234.894 10.8752 234.847 10.3752H235.827C235.934 10.9619 236.357 11.2552 237.097 11.2552C237.477 11.2552 237.77 11.1819 237.977 11.0352C238.184 10.8819 238.287 10.6886 238.287 10.4552ZM246.392 10.4552C246.392 10.3352 246.366 10.2319 246.312 10.1452C246.266 10.0519 246.206 9.97523 246.132 9.91523C246.066 9.85523 245.956 9.79857 245.802 9.74523C245.656 9.6919 245.522 9.6519 245.402 9.62523C245.289 9.5919 245.116 9.54857 244.882 9.49523C244.276 9.3619 243.839 9.17523 243.572 8.93523C243.306 8.69523 243.172 8.3819 243.172 7.99523C243.172 7.5419 243.346 7.1819 243.692 6.91523C244.046 6.64857 244.546 6.51523 245.192 6.51523C245.772 6.51523 246.249 6.6519 246.622 6.92523C247.002 7.1919 247.236 7.5619 247.322 8.03523H246.342C246.229 7.52857 245.842 7.27523 245.182 7.27523C244.836 7.27523 244.576 7.33523 244.402 7.45523C244.229 7.56857 244.142 7.71857 244.142 7.90523C244.142 8.1119 244.222 8.2719 244.382 8.38523C244.542 8.4919 244.866 8.59857 245.352 8.70523C246.039 8.85857 246.546 9.05523 246.872 9.29523C247.199 9.52857 247.362 9.8919 247.362 10.3852C247.362 10.8719 247.169 11.2652 246.782 11.5652C246.396 11.8652 245.866 12.0152 245.192 12.0152C244.546 12.0152 244.022 11.8686 243.622 11.5752C243.222 11.2752 242.999 10.8752 242.952 10.3752H243.932C244.039 10.9619 244.462 11.2552 245.202 11.2552C245.582 11.2552 245.876 11.1819 246.082 11.0352C246.289 10.8819 246.392 10.6886 246.392 10.4552ZM249.28 8.11523H248.26C248.313 7.62857 248.536 7.2419 248.93 6.95523C249.33 6.6619 249.85 6.51523 250.49 6.51523C251.156 6.51523 251.676 6.67857 252.05 7.00523C252.423 7.3319 252.61 7.76857 252.61 8.31523V11.8652H251.82L251.7 11.1552C251.293 11.7286 250.713 12.0152 249.96 12.0152C249.4 12.0152 248.96 11.8752 248.64 11.5952C248.32 11.3152 248.16 10.9586 248.16 10.5252C248.16 10.0452 248.313 9.66857 248.62 9.39523C248.933 9.11523 249.436 8.91523 250.13 8.79523L251.65 8.53523V8.27523C251.65 7.95523 251.546 7.70857 251.34 7.53523C251.133 7.3619 250.836 7.27523 250.45 7.27523C249.743 7.27523 249.353 7.55523 249.28 8.11523ZM250.19 11.2052C250.563 11.2052 250.9 11.0852 251.2 10.8452C251.5 10.5986 251.65 10.3019 251.65 9.95523V9.28523L250.36 9.51523C249.913 9.58857 249.603 9.69857 249.43 9.84523C249.263 9.98523 249.18 10.1786 249.18 10.4252C249.18 10.6786 249.266 10.8719 249.44 11.0052C249.613 11.1386 249.863 11.2052 250.19 11.2052ZM256.278 11.0952V11.9152C256.031 11.9819 255.794 12.0152 255.568 12.0152C255.121 12.0152 254.778 11.8852 254.538 11.6252C254.298 11.3652 254.178 11.0152 254.178 10.5752V7.48523H253.408V6.66523H254.178L254.238 5.41523H255.138V6.66523H256.258V7.48523H255.138V10.5952C255.138 10.9819 255.321 11.1752 255.688 11.1752C255.861 11.1752 256.058 11.1486 256.278 11.0952ZM258.2 5.79523H257.12V4.66523H258.2V5.79523ZM258.14 11.8652H257.18V6.66523H258.14V11.8652ZM262.584 10.4552C262.584 10.3352 262.557 10.2319 262.504 10.1452C262.457 10.0519 262.397 9.97523 262.324 9.91523C262.257 9.85523 262.147 9.79857 261.994 9.74523C261.847 9.6919 261.714 9.6519 261.594 9.62523C261.48 9.5919 261.307 9.54857 261.074 9.49523C260.467 9.3619 260.03 9.17523 259.764 8.93523C259.497 8.69523 259.364 8.3819 259.364 7.99523C259.364 7.5419 259.537 7.1819 259.884 6.91523C260.237 6.64857 260.737 6.51523 261.384 6.51523C261.964 6.51523 262.44 6.6519 262.814 6.92523C263.194 7.1919 263.427 7.5619 263.514 8.03523H262.534C262.42 7.52857 262.034 7.27523 261.374 7.27523C261.027 7.27523 260.767 7.33523 260.594 7.45523C260.42 7.56857 260.334 7.71857 260.334 7.90523C260.334 8.1119 260.414 8.2719 260.574 8.38523C260.734 8.4919 261.057 8.59857 261.544 8.70523C262.23 8.85857 262.737 9.05523 263.064 9.29523C263.39 9.52857 263.554 9.8919 263.554 10.3852C263.554 10.8719 263.36 11.2652 262.974 11.5652C262.587 11.8652 262.057 12.0152 261.384 12.0152C260.737 12.0152 260.214 11.8686 259.814 11.5752C259.414 11.2752 259.19 10.8752 259.144 10.3752H260.124C260.23 10.9619 260.654 11.2552 261.394 11.2552C261.774 11.2552 262.067 11.1819 262.274 11.0352C262.48 10.8819 262.584 10.6886 262.584 10.4552ZM267.221 4.63523V5.46523C266.901 5.38523 266.638 5.34523 266.431 5.34523C266.258 5.34523 266.121 5.39523 266.021 5.49523C265.928 5.58857 265.881 5.71523 265.881 5.87523V6.66523H267.001V7.48523H265.881V11.8652H264.921V7.48523H264.151V6.66523H264.921V5.93523C264.921 5.50857 265.055 5.16523 265.321 4.90523C265.588 4.64523 265.938 4.51523 266.371 4.51523C266.631 4.51523 266.915 4.55523 267.221 4.63523ZM268.694 8.11523H267.674C267.727 7.62857 267.95 7.2419 268.344 6.95523C268.744 6.6619 269.264 6.51523 269.904 6.51523C270.57 6.51523 271.09 6.67857 271.464 7.00523C271.837 7.3319 272.024 7.76857 272.024 8.31523V11.8652H271.234L271.114 11.1552C270.707 11.7286 270.127 12.0152 269.374 12.0152C268.814 12.0152 268.374 11.8752 268.054 11.5952C267.734 11.3152 267.574 10.9586 267.574 10.5252C267.574 10.0452 267.727 9.66857 268.034 9.39523C268.347 9.11523 268.85 8.91523 269.544 8.79523L271.064 8.53523V8.27523C271.064 7.95523 270.96 7.70857 270.754 7.53523C270.547 7.3619 270.25 7.27523 269.864 7.27523C269.157 7.27523 268.767 7.55523 268.694 8.11523ZM269.604 11.2052C269.977 11.2052 270.314 11.0852 270.614 10.8452C270.914 10.5986 271.064 10.3019 271.064 9.95523V9.28523L269.774 9.51523C269.327 9.58857 269.017 9.69857 268.844 9.84523C268.677 9.98523 268.594 10.1786 268.594 10.4252C268.594 10.6786 268.68 10.8719 268.854 11.0052C269.027 11.1386 269.277 11.2052 269.604 11.2052ZM274.392 5.79523H273.312V4.66523H274.392V5.79523ZM274.332 11.8652H273.372V6.66523H274.332V11.8652ZM278.055 11.0952V11.9152C277.808 11.9819 277.572 12.0152 277.345 12.0152C276.898 12.0152 276.555 11.8852 276.315 11.6252C276.075 11.3652 275.955 11.0152 275.955 10.5752V7.48523H275.185V6.66523H275.955L276.015 5.41523H276.915V6.66523H278.035V7.48523H276.915V10.5952C276.915 10.9819 277.098 11.1752 277.465 11.1752C277.638 11.1752 277.835 11.1486 278.055 11.0952ZM281.998 10.4552C281.998 10.3352 281.971 10.2319 281.918 10.1452C281.871 10.0519 281.811 9.97523 281.738 9.91523C281.671 9.85523 281.561 9.79857 281.408 9.74523C281.261 9.6919 281.128 9.6519 281.008 9.62523C280.894 9.5919 280.721 9.54857 280.488 9.49523C279.881 9.3619 279.444 9.17523 279.178 8.93523C278.911 8.69523 278.778 8.3819 278.778 7.99523C278.778 7.5419 278.951 7.1819 279.298 6.91523C279.651 6.64857 280.151 6.51523 280.798 6.51523C281.378 6.51523 281.854 6.6519 282.228 6.92523C282.608 7.1919 282.841 7.5619 282.928 8.03523H281.948C281.834 7.52857 281.448 7.27523 280.788 7.27523C280.441 7.27523 280.181 7.33523 280.008 7.45523C279.834 7.56857 279.748 7.71857 279.748 7.90523C279.748 8.1119 279.828 8.2719 279.988 8.38523C280.148 8.4919 280.471 8.59857 280.958 8.70523C281.644 8.85857 282.151 9.05523 282.478 9.29523C282.804 9.52857 282.968 9.8919 282.968 10.3852C282.968 10.8719 282.774 11.2652 282.388 11.5652C282.001 11.8652 281.471 12.0152 280.798 12.0152C280.151 12.0152 279.628 11.8686 279.228 11.5752C278.828 11.2752 278.604 10.8752 278.558 10.3752H279.538C279.644 10.9619 280.068 11.2552 280.808 11.2552C281.188 11.2552 281.481 11.1819 281.688 11.0352C281.894 10.8819 281.998 10.6886 281.998 10.4552Z" fill="#0F1A2A"/>
</svg>
